# xmcd
#
# Track frame offsets:
#	180
#	17897
#	36530
#	58230
#	73559
#	100677
#	118225
#	134898
#	149221
#	162171
#	180416
#
# Disc length: 2700 seconds
#
# Revision: 0
# Processed by: cddbd v1.4PL0 Copyright (c) Steve Scherf et al.
# Submitted via: dBpowerAMP V4.0
#
DISCID=ae0a8a0b
DTITLE=Ned Lucas Band - Little Shot of Blue
DYEAR=1900
DGENRE=Blues
TTITLE0=She Gets Away
TTITLE1=Whiteman Blues
TTITLE2=Little Shot of Blue
TTITLE3=Jennifer Rises
TTITLE4=Right By You
TTITLE5=I Love Your Big...
TTITLE6=Won't Look In My Eyes
TTITLE7=Fly In The Ointment
TTITLE8=My Baby Told me
TTITLE9=When's Your Good Time?
TTITLE10=What Johhny Know's
EXTD=
EXTT0=
EXTT1=
EXTT2=
EXTT3=
EXTT4=
EXTT5=
EXTT6=
EXTT7=
EXTT8=
EXTT9=
EXTT10=
PLAYORDER=
